<svg width="18" height="18" viewBox="0 0 18 18" fill="none" xmlns="http://www.w3.org/2000/svg">
<path d="M11.1213 9L17.4853 15.364C18.0711 15.9497 18.0711 16.8995 17.4853 17.4853C16.8995 18.0711 15.9498 18.0711 15.364 17.4853L9.00001 11.1213L2.63605 17.4853C2.05026 18.0711 1.10052 18.0711 0.514731 17.4853C-0.0710559 16.8995 -0.0710557 15.9497 0.514731 15.364L6.87869 9L0.514731 2.63604C-0.0710557 2.05025 -0.0710559 1.10051 0.514731 0.514719C1.10052 -0.0710678 2.05026 -0.0710677 2.63605 0.514719L9.00001 6.87868L15.364 0.514719C15.9498 -0.0710671 16.8995 -0.0710678 17.4853 0.514719C18.0711 1.10051 18.0711 2.05025 17.4853 2.63604L11.1213 9Z" fill="#98A2B3"/>
</svg>
